# xmcd
#
# Track frame offsets: 
#        150
#        17148
#        47547
#
# Disc length: 1038 seconds
#
# Revision: 1
# Processed by: cddbd v1.5.2PL0 Copyright (c) Steve Scherf et al.
# Submitted via: ExactAudioCopy v0.99pb5
#
DISCID=1a040c03
DTITLE=Leslie - Vivons Pour Demain
DYEAR=2005
DGENRE=R&B
TTITLE0=Vivons Pour Demain (Radio Edit)
TTITLE1=Nos Coleres
TTITLE2=Data
EXTD=
EXTT0=
EXTT1=
EXTT2=
PLAYORDER=
